<?xml version="1.0"?>
<svg xmlns="http://www.w3.org/2000/svg" xmlns:xlink="http://www.w3.org/1999/xlink" version="1.1" viewBox="0 0 210 210" width="52px" height="52px"><g transform=""><g fill="none" fill-rule="nonzero" stroke="none" stroke-width="1" stroke-linecap="butt" stroke-linejoin="miter" stroke-miterlimit="10" stroke-dasharray="" stroke-dashoffset="0" font-family="none" font-weight="none" font-size="none" text-anchor="none" style="mix-blend-mode: normal"><path d="M0,210v-210h210v210z" fill="none"/><g fill="#f07e1d"><g id="surface1"><path d="M208.83263,45.02254c-7.60366,3.3759 -15.77524,5.64754 -24.35697,6.6887c8.73948,-5.26893 15.49129,-13.56671 18.64634,-23.47356c-8.20312,4.85877 -17.28966,8.39242 -26.94411,10.28545c-7.72987,-8.23467 -18.74098,-13.3774 -30.95102,-13.3774c-23.41046,0 -42.40385,18.99339 -42.40385,42.40385c0,3.31281 0.37861,6.5625 1.10427,9.65445c-35.24189,-1.76683 -66.47686,-18.67788 -87.39484,-44.32842c-3.65986,6.27854 -5.74218,13.5667 -5.74218,21.35967c0,14.70252 7.47746,27.66977 18.86718,35.27343c-6.97265,-0.22085 -13.50361,-2.11388 -19.21424,-5.30048c0,0.18931 0,0.34706 0,0.53636c0,20.53936 14.60787,37.67127 34.01141,41.58353c-3.5652,0.97807 -7.28816,1.48287 -11.16887,1.48287c-2.74489,0 -5.39513,-0.2524 -7.98227,-0.75721c5.39513,16.8164 21.04416,29.1211 39.59585,29.4366c-14.48166,11.38972 -32.78094,18.14153 -52.65775,18.14153c-3.439,0 -6.78336,-0.18931 -10.09615,-0.56791c18.74099,12.02074 41.04717,19.02494 64.99399,19.02494c77.99279,0 120.64904,-64.61538 120.64904,-120.61749c0,-1.86147 -0.03155,-3.6914 -0.1262,-5.52133c8.29778,-5.93149 15.49129,-13.40896 21.17037,-21.92759"/></g></g><path d="" fill="none"/><path d="" fill="none"/></g></g></svg>
